<svg xmlns="http://www.w3.org/2000/svg" xmlns:xlink="http://www.w3.org/1999/xlink" xmlns:lucid="lucid" width="380" height="84"><g transform="translate(0 0)" lucid:page-tab-id="46BLV.qoCFkq"><path d="M0 0h380v84H0z"/><path d="M0 4h380v80H0z" stroke="#fff" stroke-width="5"/><path d="M0 32a8 8 0 0 1 8-8h364a8 8 0 0 1 8 8v32a8 8 0 0 1-8 8H8a8 8 0 0 1-8-8z" fill="none"/><use xlink:href="#a" transform="matrix(1,0,0,1,2.842170943040401e-14,24) translate(24.43972439236137 35.33582899305551)"/><defs><path fill="#fff" d="M872-915c-35-112-84-223-220-223-91 0-156 41-204 116-89 137-87 550 2 688 51 79 116 122 209 122 150 0 197-126 240-244l273 52C1094-168 961 20 656 20 239 20 80-262 80-681c0-418 154-689 568-689 289 0 425 167 496 389" id="b"/><path fill="#fff" d="M775-193C708-75 621 20 439 20 226 20 106-93 106-306c0-251 170-341 417-346l223-4c4-143-12-264-148-264-103 0-141 58-150 153l-293-14c37-219 194-321 455-321 263 0 418 130 417 390v392c1 84 5 161 89 160 21 0 42-2 62-6v152c-57 15-108 27-180 26-145 0-202-73-217-205h-6zm-256 17c168 0 234-139 227-325-166 4-347-25-347 173 0 94 33 152 120 152" id="c"/><path fill="#fff" d="M157-1349h916v228H757v893h316V0H157v-228h316v-893H157v-228" id="d"/><path fill="#fff" d="M934-1102c199 0 220 177 220 381V0H926c-2-260 10-533-4-785-4-72-14-138-83-138-34 0-61 27-81 81s-29 134-29 241V0H501c-2-260 9-533-5-785-4-72-13-138-82-138-46 0-65 47-80 93-21 67-30 155-30 248V0H75c-3-360 6-732-6-1082h209c6 50 3 123 8 175 36-100 83-195 216-195 135 0 166 79 196 196 42-105 93-196 236-196" id="e"/><path fill="#fff" d="M1229 0H935l-92-330H387L295 0H0l443-1349h344zM615-1167c-46 213-110 412-166 615h332c-56-204-119-401-166-615" id="f"/><path fill="#fff" d="M768-1103c247 0 336 167 336 416V0H824v-619c-3-164-24-273-171-273-164 0-229 142-229 312V0H143c-4-359 9-736-8-1082h268c7 63 12 146 13 215h4c67-145 160-236 348-236" id="g"/><path fill="#fff" d="M324-409v-244h580v244H324" id="h"/><path fill="#fff" d="M305-1169c27 366 9 780 14 1169H99v-1349h347c49 189 108 371 150 564 12 56 15 107 23 166 33-270 117-487 176-730h335V0H908c5-390-13-801 16-1169-52 285-130 541-199 809H507c-70-267-148-525-202-809" id="i"/><path fill="#fff" d="M762-1121V0H467v-1121H61v-228h1107v228H762" id="j"/><path fill="#fff" d="M211 0v-1349h295v1121h616V0H211" id="k"/><path fill="#fff" d="M836-709c204 20 350 118 350 324C1186-112 992 0 719 0H137v-1349h525c258 3 443 87 443 339 0 176-107 269-269 301zM643-811c107 0 165-53 165-159 0-113-61-160-167-160H432v319h211zm46 592c128-1 201-59 200-191-1-128-80-183-207-183H432v374h257" id="l"/><g id="a"><use transform="matrix(0.02072482638888886,0,0,0.02072482638888886,0,0)" xlink:href="#b"/><use transform="matrix(0.02072482638888886,0,0,0.02072482638888886,25.47081163194441,0)" xlink:href="#c"/><use transform="matrix(0.02072482638888886,0,0,0.02072482638888886,50.94162326388882,0)" xlink:href="#d"/><use transform="matrix(0.02072482638888886,0,0,0.02072482638888886,76.41243489583323,0)" xlink:href="#e"/><use transform="matrix(0.02072482638888886,0,0,0.02072482638888886,101.88324652777764,0)" xlink:href="#f"/><use transform="matrix(0.02072482638888886,0,0,0.02072482638888886,127.35405815972207,0)" xlink:href="#g"/><use transform="matrix(0.02072482638888886,0,0,0.02072482638888886,152.82486979166646,0)" xlink:href="#h"/><use transform="matrix(0.02072482638888886,0,0,0.02072482638888886,178.29568142361086,0)" xlink:href="#i"/><use transform="matrix(0.02072482638888886,0,0,0.02072482638888886,203.7664930555553,0)" xlink:href="#f"/><use transform="matrix(0.02072482638888886,0,0,0.02072482638888886,229.23730468749966,0)" xlink:href="#j"/><use transform="matrix(0.02072482638888886,0,0,0.02072482638888886,254.70811631944406,0)" xlink:href="#k"/><use transform="matrix(0.02072482638888886,0,0,0.02072482638888886,280.17892795138846,0)" xlink:href="#f"/><use transform="matrix(0.02072482638888886,0,0,0.02072482638888886,305.64973958333286,0)" xlink:href="#l"/></g></defs></g></svg>