<svg xmlns="http://www.w3.org/2000/svg" xmlns:xlink="http://www.w3.org/1999/xlink" xmlns:lucid="lucid" width="255.47" height="257.91"><g transform="translate(0 0)" lucid:page-tab-id="4x30bRxORY9R"><path d="M10 28.67a18 18 0 0 1 18-18h199.47a18 18 0 0 1 18 18v200.57a18 18 0 0 1-18 18H28a18 18 0 0 1-18-18z" stroke="#1071e5" stroke-width="4" fill="#0f111a"/><path d="M13.73 33.1a8 8 0 0 1 8-8h212a8 8 0 0 1 8 8v113.8a8 8 0 0 1-8 8h-212a8 8 0 0 1-8-8z" fill="#fff" fill-opacity="0"/><path d="M17.73 33.1c0 2.2-1.8 4-4 4s-4-1.8-4-4 1.8-4 4-4 4 1.8 4 4zm38.3-8c0 2.2-1.8 4-4 4-2.22 0-4-1.8-4-4s1.78-4 4-4c2.2 0 4 1.8 4 4zm30.27 0c0 2.2-1.8 4-4 4s-4-1.8-4-4 1.8-4 4-4 4 1.8 4 4zm30.3 0c0 2.2-1.8 4-4 4-2.22 0-4-1.8-4-4s1.78-4 4-4c2.2 0 4 1.8 4 4zm30.28 0c0 2.2-1.8 4-4 4s-4-1.8-4-4 1.8-4 4-4 4 1.8 4 4zm30.28 0c0 2.2-1.8 4-4 4s-4-1.8-4-4 1.8-4 4-4 4 1.8 4 4zm30.3 0c0 2.2-1.8 4-4 4-2.22 0-4-1.8-4-4s1.78-4 4-4c2.2 0 4 1.8 4 4zm30.27 0c0 2.2-1.8 4-4 4s-4-1.8-4-4 1.8-4 4-4 4 1.8 4 4zm8 36.45c0 2.2-1.8 4-4 4s-4-1.8-4-4 1.8-4 4-4 4 1.8 4 4zm0 28.45c0 2.2-1.8 4-4 4s-4-1.8-4-4 1.8-4 4-4 4 1.8 4 4zm0 28.45c0 2.2-1.8 4-4 4s-4-1.8-4-4 1.8-4 4-4 4 1.8 4 4zm0 28.45c0 2.2-1.8 4-4 4s-4-1.8-4-4 1.8-4 4-4 4 1.8 4 4zm-38.28 8c0 2.2-1.8 4-4 4s-4-1.8-4-4 1.8-4 4-4 4 1.8 4 4zm-30.3 0c0 2.2-1.78 4-4 4-2.2 0-4-1.8-4-4s1.8-4 4-4c2.22 0 4 1.8 4 4zm-30.27 0c0 2.2-1.8 4-4 4s-4-1.8-4-4 1.8-4 4-4 4 1.8 4 4zm-30.3 0c0 2.2-1.78 4-4 4-2.2 0-4-1.8-4-4s1.8-4 4-4c2.22 0 4 1.8 4 4zm-30.28 0c0 2.2-1.8 4-4 4s-4-1.8-4-4 1.8-4 4-4 4 1.8 4 4zm-30.28 0c0 2.2-1.8 4-4 4s-4-1.8-4-4 1.8-4 4-4 4 1.8 4 4zm-30.3 0c0 2.2-1.78 4-4 4-2.2 0-4-1.8-4-4s1.8-4 4-4c2.22 0 4 1.8 4 4zm-8-36.45c0 2.2-1.78 4-4 4-2.2 0-4-1.8-4-4s1.8-4 4-4c2.22 0 4 1.8 4 4zm0-28.45c0 2.2-1.78 4-4 4-2.2 0-4-1.8-4-4s1.8-4 4-4c2.22 0 4 1.8 4 4zm0-28.45c0 2.2-1.78 4-4 4-2.2 0-4-1.8-4-4s1.8-4 4-4c2.22 0 4 1.8 4 4zm0-28.45c0 2.2-1.78 4-4 4-2.2 0-4-1.8-4-4s1.8-4 4-4c2.22 0 4 1.8 4 4z" fill-opacity="0"/><use xlink:href="#a" transform="matrix(1,0,0,1,18.732826059872508,30.104166666666785) translate(-3.6790364583331154 94.93923611111104)"/><path d="M57.73 128a8 8 0 0 1 8-8h124a8 8 0 0 1 8 8v90.35a8 8 0 0 1-8 8h-124a8 8 0 0 1-8-8z" fill="#fff" fill-opacity="0"/><path d="M61.73 128c0 2.2-1.8 4-4 4s-4-1.8-4-4 1.8-4 4-4 4 1.8 4 4zm39-8c0 2.2-1.8 4-4 4s-4-1.8-4-4 1.8-4 4-4 4 1.8 4 4zm31 0c0 2.2-1.8 4-4 4s-4-1.8-4-4 1.8-4 4-4 4 1.8 4 4zm31 0c0 2.2-1.8 4-4 4s-4-1.8-4-4 1.8-4 4-4 4 1.8 4 4zm31 0c0 2.2-1.8 4-4 4s-4-1.8-4-4 1.8-4 4-4 4 1.8 4 4zm8 38.12c0 2.2-1.8 4-4 4s-4-1.8-4-4 1.8-4 4-4 4 1.8 4 4zm0 30.12c0 2.2-1.8 4-4 4s-4-1.8-4-4 1.8-4 4-4 4 1.8 4 4zm0 30.1c0 2.22-1.8 4-4 4s-4-1.78-4-4c0-2.2 1.8-4 4-4s4 1.8 4 4zm-39 8c0 2.22-1.8 4-4 4s-4-1.78-4-4c0-2.2 1.8-4 4-4s4 1.8 4 4zm-31 0c0 2.22-1.8 4-4 4s-4-1.78-4-4c0-2.2 1.8-4 4-4s4 1.8 4 4zm-31 0c0 2.22-1.8 4-4 4s-4-1.78-4-4c0-2.2 1.8-4 4-4s4 1.8 4 4zm-31 0c0 2.22-1.8 4-4 4s-4-1.78-4-4c0-2.2 1.8-4 4-4s4 1.8 4 4zm-8-38.1c0 2.2-1.8 4-4 4s-4-1.8-4-4 1.8-4 4-4 4 1.8 4 4zm0-30.12c0 2.2-1.8 4-4 4s-4-1.8-4-4 1.8-4 4-4 4 1.8 4 4zm0-30.12c0 2.2-1.8 4-4 4s-4-1.8-4-4 1.8-4 4-4 4 1.8 4 4z" fill-opacity="0"/><use xlink:href="#b" transform="matrix(1,0,0,1,62.73282605987251,125) translate(-16.559787326388758 76.60329861111106)"/><defs><path fill="#fff" d="M522-1456L896-400l372-1056h394V0h-301c-7-379 15-728 30-1085L998 0H792L400-1084c15 357 37 705 30 1084H130v-1456h392" id="c"/><path fill="#fff" d="M1212-428C1211-131 1004 0 696 0H130v-1456h510c318-1 539 108 539 399 0 155-89 264-208 308 141 33 242 151 241 321zM687-241c132 2 225-65 225-190 0-133-69-203-207-203H430v393h257zm192-786c0-145-86-186-239-186H430v367h222c151-3 227-63 227-181" id="d"/><path fill="#fff" d="M1248-1138c106 220 104 603 2 820-91 195-274 338-542 338C281 20 86-300 86-759c0-291 115-515 296-629 182-114 467-115 648 0 94 60 166 141 218 250zM940-344c111-153 110-617 0-765-57-77-133-119-234-119s-177 41-233 118c-64 88-83 240-83 415 0 149 27 264 82 346s133 123 236 123c101 0 176-40 232-118" id="e"/><g id="a"><use transform="matrix(0.04991319444444434,0,0,0.04991319444444434,0,0)" xlink:href="#c"/><use transform="matrix(0.04991319444444434,0,0,0.04991319444444434,89.54427083333316,0)" xlink:href="#d"/><use transform="matrix(0.04991319444444434,0,0,0.04991319444444434,154.78081597222192,0)" xlink:href="#e"/></g><path fill="#1071e5" d="M1288 0h-193v-673H361V0H169v-1456h192v626h734v-626h193V0" id="f"/><path fill="#1071e5" d="M665-137c214 0 337-121 336-332v-987h193v990c-3 300-218 486-529 486-309 0-526-181-525-484v-992h190v986c-1 210 123 333 335 333" id="g"/><path fill="#1071e5" d="M1160-420C1159-145 963 0 674 0H169v-1456h476c294-1 476 112 476 388 0 153-99 253-216 302 146 38 255 167 255 346zM678-157c171 2 289-95 289-261 0-175-95-263-286-263H361v524h317zm250-912c-2-172-104-229-283-229H361v463h290c157 3 278-84 277-234" id="h"/><g id="b"><use transform="matrix(0.04014756944444438,0,0,0.04014756944444438,0,0)" xlink:href="#f"/><use transform="matrix(0.04014756944444438,0,0,0.04014756944444438,58.61545138888879,0)" xlink:href="#g"/><use transform="matrix(0.04014756944444438,0,0,0.04014756944444438,111.93142361111093,0)" xlink:href="#h"/></g></defs></g></svg>